<svg width="50" height="34" fill="none" xmlns="http://www.w3.org/2000/svg"><path d="M31.347 14.621V9.713h-2.453V8.92h5.812v.793h-2.453v4.908h-.906zm-9.057 0v-5.7h.475l3.692 4.005V8.92h.892v5.701h-.477l-3.69-3.992v3.992h-.893zm-8.836 0v-5.7h.755l2.379 3.335 2.383-3.336h.756v5.701h-.907v-4.099l-2.232 3.17-2.228-3.17v4.1h-.906zm-6.957 0v-5.7h.906v4.88h4.321v.82H6.497zM43.154 25.68v-7.368h.49l4.877 5.507v-5.507h.934v7.369h-.477l-4.89-5.507v5.507h-.934zm-2.86-1.995v-1.08h-2.048v-.848h2.982v2.215a3.798 3.798 0 01-1.419 1.41c-.583.326-1.245.49-1.984.49-1.124 0-2.053-.364-2.788-1.091-.731-.727-1.099-1.65-1.099-2.769 0-1.12.368-2.046 1.102-2.772.736-.727 1.663-1.092 2.783-1.092.694 0 1.329.148 1.9.447a3.661 3.661 0 011.394 1.276l-.78.547a2.541 2.541 0 00-1.023-1.035 3 3 0 00-1.489-.373c-.843 0-1.542.284-2.095.851-.553.568-.83 1.286-.83 2.151 0 .869.277 1.586.83 2.151.553.565 1.252.848 2.095.848.527 0 .994-.112 1.406-.333a3.074 3.074 0 001.063-.993zm-8.947 1.995v-7.409h.947v7.41h-.947zm-9.151-1.109l.544-.79c.532.403 1.085.71 1.659.925a4.9 4.9 0 001.705.319c.694 0 1.259-.144 1.691-.433.434-.29.65-.661.65-1.114 0-.36-.155-.657-.467-.89-.31-.232-.74-.37-1.289-.416a10.324 10.324 0 00-.571-.039c-1.236-.086-2.077-.228-2.528-.428-.348-.166-.616-.378-.797-.638a1.508 1.508 0 01-.272-.88c0-.592.27-1.08.811-1.465.54-.382 1.24-.574 2.103-.574.627 0 1.245.1 1.856.303a6.41 6.41 0 011.74.9l-.544.766a5.274 5.274 0 00-1.461-.83 4.604 4.604 0 00-1.575-.277c-.567 0-1.034.109-1.403.325-.367.217-.55.488-.55.814 0 .127.03.246.087.353.059.107.151.21.272.303.31.225.976.371 2.003.433.471.027.838.055 1.096.086.762.085 1.366.324 1.812.72.444.397.667.882.667 1.46 0 .689-.304 1.256-.915 1.7-.611.445-1.413.668-2.402.668a6.62 6.62 0 01-2.086-.319 6.31 6.31 0 01-1.836-.982zm-6.892 1.109v-7.368h5.91v.848h-4.976v2.16h3.01v.847h-3.01v2.666h5.282v.848h-6.216zM9.72 18.312c1.182 0 2.134.342 2.857 1.028.722.686 1.085 1.576 1.085 2.677 0 1.107-.356 1.996-1.067 2.663-.713.668-1.67 1-2.876 1H6.497v-7.368H9.72zm0 .848H7.43v5.673h2.288c.925 0 1.654-.255 2.184-.763.532-.51.797-1.199.797-2.067 0-.854-.27-1.542-.811-2.062-.539-.521-1.264-.781-2.17-.781z" fill="#fff"/><path fill-rule="evenodd" clip-rule="evenodd" d="M32.253 33.063v.889H.11v-.889h32.143zm0 0h-.906v-3.691h.906v3.691zm0-27.834h-.906l-.03-4.131.936-.448v4.58z" fill="#D69F67"/><path fill-rule="evenodd" clip-rule="evenodd" d="M.11 33.952l.906-.889V1.538H.11v32.414zM32.253.65l-.906.888H.11V.65h32.143z" fill="#5B5B5B"/></svg>