<svg width="98" height="72" fill="none" xmlns="http://www.w3.org/2000/svg"><path d="M62.034 30.206v-10.61h-4.872V17.88h11.544v1.715h-4.872v10.61h-1.8zm-17.989 0V17.881h.946l7.33 8.66v-8.66h1.773v12.325h-.946l-7.331-8.63v8.63h-1.772zm-17.547 0V17.881h1.5l4.724 7.212 4.734-7.212h1.5v12.325h-1.8v-8.862l-4.434 6.853-4.425-6.853v8.862h-1.799zm-13.816 0V17.881h1.8v10.552h8.58v1.773h-10.38zm72.804 23.912V38.187h.974l9.684 11.906V38.186H98v15.932h-.946L87.341 42.21v11.907h-1.855zm-5.681-4.315v-2.335h-4.07v-1.833h5.925v4.788c-.72 1.326-1.661 2.34-2.82 3.05-1.157.704-2.472 1.059-3.94 1.059-2.232 0-4.078-.788-5.536-2.36-1.453-1.571-2.182-3.566-2.182-5.985 0-2.424.729-4.424 2.187-5.995 1.462-1.572 3.303-2.36 5.527-2.36 1.38 0 2.64.32 3.774.966 1.135.645 2.058 1.566 2.769 2.758l-1.55 1.183c-.471-.951-1.145-1.7-2.03-2.237-.882-.537-1.87-.808-2.958-.808-1.675 0-3.064.616-4.162 1.843-1.098 1.226-1.647 2.778-1.647 4.65 0 1.877.549 3.428 1.647 4.65 1.098 1.222 2.487 1.833 4.162 1.833 1.047 0 1.975-.242 2.791-.72.812-.483 1.518-1.197 2.113-2.147zm-17.77 4.315v-16.02h1.883v16.02h-1.883zm-18.174-2.399l1.08-1.71c1.056.872 2.154 1.538 3.294 2 1.14.459 2.27.69 3.387.69 1.38 0 2.5-.31 3.359-.936.862-.625 1.291-1.428 1.291-2.408 0-.779-.309-1.42-.927-1.922-.618-.502-1.472-.803-2.56-.901a19.06 19.06 0 00-1.136-.084c-2.454-.187-4.124-.492-5.02-.926-.691-.36-1.222-.818-1.582-1.38a3.465 3.465 0 01-.54-1.9c0-1.282.535-2.336 1.61-3.168 1.07-.828 2.464-1.242 4.176-1.242 1.246 0 2.473.217 3.686.655a12.385 12.385 0 013.456 1.946l-1.08 1.656c-.922-.794-1.887-1.39-2.902-1.794a8.482 8.482 0 00-3.128-.6c-1.126 0-2.053.236-2.787.704-.728.468-1.093 1.054-1.093 1.758 0 .276.06.532.175.764.116.232.3.453.54.655.614.488 1.938.803 3.977.936.937.06 1.666.118 2.178.187 1.513.183 2.713.7 3.599 1.557.881.857 1.324 1.907 1.324 3.157 0 1.488-.604 2.715-1.818 3.675s-2.805 1.444-4.77 1.444c-1.486 0-2.87-.232-4.144-.69-1.278-.463-2.491-1.168-3.645-2.123zm-13.689 2.399V38.187H41.91v1.832h-9.883v4.67h5.98v1.833h-5.98v5.763h10.492v1.833H30.172zM19.08 38.187c2.35 0 4.241.739 5.676 2.222 1.435 1.482 2.155 3.409 2.155 5.788 0 2.394-.706 4.315-2.118 5.758-1.416 1.444-3.317 2.163-5.712 2.163h-6.4V38.187h6.4zm0 1.832h-4.543v12.266h4.544c1.836 0 3.285-.552 4.337-1.65 1.056-1.103 1.583-2.591 1.583-4.468 0-1.847-.536-3.335-1.61-4.458-1.071-1.128-2.51-1.69-4.31-1.69z" fill="#fff"/><path fill-rule="evenodd" clip-rule="evenodd" d="M63.837 70.079V72H0v-1.921h63.837zm0 0h-1.8v-7.98h1.8v7.98zm0-60.177h-1.8l-.06-8.933L63.837 0v9.902z" fill="#D69F67"/><path fill-rule="evenodd" clip-rule="evenodd" d="M0 72l1.8-1.921V1.92H0V72zM63.837 0l-1.8 1.921H0V0h63.837z" fill="#5B5B5B"/></svg>