<svg width="98" height="72" viewBox="0 0 98 72" fill="none" xmlns="http://www.w3.org/2000/svg">
<path d="M62.0341 30.2064V19.5958H57.1621V17.8813H68.7058V19.5958H63.8338V30.2064H62.0341Z" fill="white"/>
<path d="M44.0449 30.2064V17.8813H44.9908L52.3219 26.5413V17.8813H54.0938V30.2064H53.1479L45.8167 21.5757V30.2064H44.0449Z" fill="white"/>
<path d="M26.498 30.2064V17.8813H27.9975L32.722 25.0933L37.4558 17.8813H38.9555V30.2064H37.1559V21.3443L32.722 28.1967L28.2975 21.3443V30.2064H26.498Z" fill="white"/>
<path d="M12.6816 30.2064V17.8813H14.4813V28.433H23.0627V30.2064H12.6816Z" fill="white"/>
<path d="M85.4863 54.1178V38.1865H86.4596L96.1443 50.093V38.1865H97.9992V54.1178H97.0533L87.3412 42.2113V54.1178H85.4863Z" fill="white"/>
<path d="M79.805 49.8028V47.4677H75.7357V45.6353H81.6599V50.4234C80.9403 51.7486 79.9989 52.7631 78.8408 53.4725C77.6828 54.1769 76.368 54.5316 74.9006 54.5316C72.6677 54.5316 70.8221 53.7436 69.3642 52.1721C67.9108 50.6008 67.1816 48.6058 67.1816 46.1869C67.1816 43.7632 67.9108 41.7632 69.3687 40.192C70.8312 38.6204 72.6724 37.832 74.896 37.832C76.2755 37.832 77.5353 38.1525 78.6701 38.7977C79.8051 39.4432 80.728 40.3644 81.4385 41.5565L79.8881 42.7386C79.4176 41.7879 78.7441 41.0392 77.8583 40.5023C76.9768 39.9654 75.9897 39.6945 74.9006 39.6945C73.226 39.6945 71.8373 40.31 70.739 41.5366C69.641 42.7634 69.0918 44.3151 69.0918 46.1869C69.0918 48.0637 69.641 49.6154 70.739 50.8372C71.8373 52.059 73.226 52.6696 74.9006 52.6696C75.9482 52.6696 76.8755 52.4283 77.6922 51.9504C78.5041 51.4675 79.2099 50.7534 79.805 49.8028Z" fill="white"/>
<path d="M62.0352 54.1185V38.0986H63.9179V54.1185H62.0352Z" fill="white"/>
<path d="M43.8613 51.7189L44.9409 50.0095C45.9974 50.8814 47.0955 51.5466 48.2351 52.0094C49.3748 52.4677 50.5052 52.6992 51.6217 52.6992C53.0012 52.6992 54.1224 52.3888 54.9806 51.7633C55.8431 51.1377 56.2725 50.3348 56.2725 49.3546C56.2725 48.5761 55.9632 47.9354 55.3449 47.4332C54.727 46.9308 53.8732 46.6302 52.7845 46.5318C52.5213 46.5021 52.1429 46.4725 51.6493 46.448C49.1946 46.261 47.5245 45.9555 46.6293 45.5219C45.9375 45.1623 45.4069 44.7043 45.0469 44.1426C44.6871 43.5761 44.5071 42.9456 44.5071 42.2412C44.5071 40.9603 45.0422 39.9061 46.1173 39.0735C47.1878 38.2461 48.5813 37.832 50.2929 37.832C51.5387 37.832 52.7658 38.0489 53.9794 38.4874C55.1929 38.9258 56.3464 39.5762 57.4351 40.4331L56.3555 42.0886C55.4328 41.2954 54.4682 40.6992 53.4534 40.2953C52.4381 39.8962 51.3954 39.6945 50.3254 39.6945C49.1993 39.6945 48.2721 39.9309 47.5383 40.3986C46.8095 40.8667 46.4449 41.4529 46.4449 42.1573C46.4449 42.4331 46.5048 42.6893 46.6202 42.9208C46.7357 43.1525 46.92 43.3743 47.16 43.5761C47.7737 44.0638 49.0979 44.379 51.1371 44.512C52.0739 44.5713 52.8027 44.6304 53.315 44.6991C54.8282 44.8817 56.0279 45.3987 56.9136 46.256C57.7951 47.113 58.2379 48.1625 58.2379 49.4135C58.2379 50.9011 57.6336 52.1277 56.4199 53.0884C55.2065 54.0488 53.6149 54.5316 51.6493 54.5316C50.1638 54.5316 48.7794 54.3002 47.5062 53.8422C46.2282 53.3789 45.0148 52.6744 43.8613 51.7189Z" fill="white"/>
<path d="M30.1719 54.1178V38.1865H41.9095V40.0193H32.0268V44.6891H38.0063V46.5219H32.0268V52.2853H42.5187V54.1178H30.1719Z" fill="white"/>
<path d="M19.0809 38.1865C21.4295 38.1865 23.321 38.9256 24.756 40.4086C26.1911 41.8911 26.9107 43.8175 26.9107 46.1965C26.9107 48.5906 26.2049 50.512 24.7929 51.9551C23.3766 53.3985 21.4756 54.1178 19.0809 54.1178H12.6816V38.1865H19.0809ZM19.0809 40.0193H14.5365V52.2853H19.0809C20.9171 52.2853 22.366 51.7334 23.418 50.6349C24.4745 49.5317 25.0006 48.0438 25.0006 46.1672C25.0006 44.3197 24.4653 42.832 23.3902 41.7089C22.3198 40.5809 20.8805 40.0193 19.0809 40.0193Z" fill="white"/>
<path fill-rule="evenodd" clip-rule="evenodd" d="M63.8367 70.0786V72H0V70.0786H63.8367ZM63.8367 70.0786H62.0373V62.0985H63.8367V70.0786ZM63.8367 9.90154H62.0373L61.9769 0.969196L63.8367 0V9.90154Z" fill="#D69F67"/>
<path fill-rule="evenodd" clip-rule="evenodd" d="M0 72L1.79962 70.0786V1.92141H0V72ZM63.8367 0L62.0373 1.92141H1.79962H0V0H63.8367Z" fill="#5B5B5B"/>
</svg>
