<svg width="50" height="34" viewBox="0 0 50 34" fill="none" xmlns="http://www.w3.org/2000/svg">
<path d="M31.3467 14.6211V9.7134H28.8936V8.92041H34.706V9.7134H32.2528V14.6211H31.3467Z" fill="white"/>
<path d="M22.2891 14.6211V8.92041H22.7653L26.4567 12.9259V8.92041H27.3488V14.6211H26.8725L23.1812 10.6292V14.6211H22.2891Z" fill="white"/>
<path d="M13.4541 14.6211V8.92041H14.2091L16.588 12.2561L18.9715 8.92041H19.7266V14.6211H18.8205V10.5221L16.588 13.6915L14.3602 10.5221V14.6211H13.4541Z" fill="white"/>
<path d="M6.49707 14.6211V8.92041H7.4032V13.8008H11.7241V14.6211H6.49707Z" fill="white"/>
<path d="M43.1543 25.6807V18.312H43.6444L48.5208 23.8191V18.312H49.4547V25.6807H48.9784L44.0882 20.1736V25.6807H43.1543Z" fill="white"/>
<path d="M40.2945 23.6849V22.6048H38.2455V21.7573H41.2285V23.9719C40.8661 24.5849 40.3921 25.0541 39.809 25.3822C39.2259 25.708 38.5639 25.8721 37.8251 25.8721C36.7008 25.8721 35.7715 25.5076 35.0374 24.7808C34.3056 24.054 33.9385 23.1312 33.9385 22.0124C33.9385 20.8914 34.3056 19.9664 35.0397 19.2396C35.7761 18.5127 36.7031 18.1481 37.8227 18.1481C38.5173 18.1481 39.1517 18.2963 39.7231 18.5947C40.2945 18.8933 40.7593 19.3194 41.117 19.8708L40.3363 20.4175C40.0995 19.9778 39.7603 19.6315 39.3143 19.3831C38.8705 19.1348 38.3735 19.0095 37.8251 19.0095C36.9819 19.0095 36.2827 19.2942 35.7297 19.8615C35.1768 20.429 34.9003 21.1467 34.9003 22.0124C34.9003 22.8805 35.1768 23.5982 35.7297 24.1633C36.2827 24.7284 36.9819 25.0108 37.8251 25.0108C38.3525 25.0108 38.8195 24.8992 39.2307 24.6782C39.6395 24.4549 39.9949 24.1246 40.2945 23.6849Z" fill="white"/>
<path d="M31.3467 25.6809V18.2712H32.2945V25.6809H31.3467Z" fill="white"/>
<path d="M22.1963 24.5711L22.7399 23.7805C23.2718 24.1838 23.8248 24.4914 24.3986 24.7055C24.9724 24.9175 25.5416 25.0246 26.1038 25.0246C26.7984 25.0246 27.3629 24.881 27.795 24.5917C28.2293 24.3023 28.4455 23.931 28.4455 23.4776C28.4455 23.1175 28.2898 22.8212 27.9784 22.5889C27.6673 22.3565 27.2374 22.2175 26.6892 22.172C26.5567 22.1582 26.3662 22.1445 26.1176 22.1332C24.8817 22.0467 24.0408 21.9054 23.59 21.7049C23.2417 21.5385 22.9745 21.3267 22.7932 21.0669C22.6121 20.8048 22.5214 20.5132 22.5214 20.1874C22.5214 19.595 22.7909 19.1074 23.3322 18.7223C23.8712 18.3396 24.5729 18.1481 25.4347 18.1481C26.062 18.1481 26.6798 18.2484 27.2909 18.4512C27.9019 18.654 28.4827 18.9548 29.0309 19.3511L28.4873 20.1169C28.0227 19.75 27.537 19.4742 27.026 19.2874C26.5148 19.1028 25.9898 19.0095 25.451 19.0095C24.884 19.0095 24.4172 19.1188 24.0477 19.3352C23.6808 19.5517 23.4972 19.8228 23.4972 20.1486C23.4972 20.2762 23.5273 20.3947 23.5854 20.5018C23.6436 20.609 23.7364 20.7115 23.8572 20.8048C24.1662 21.0304 24.833 21.1762 25.8598 21.2378C26.3314 21.2652 26.6984 21.2925 26.9564 21.3243C27.7183 21.4087 28.3224 21.6478 28.7683 22.0444C29.2122 22.4408 29.4351 22.9262 29.4351 23.5048C29.4351 24.1929 29.1308 24.7602 28.5197 25.2046C27.9088 25.6488 27.1074 25.8721 26.1176 25.8721C25.3697 25.8721 24.6726 25.765 24.0316 25.5532C23.388 25.3389 22.7771 25.0131 22.1963 24.5711Z" fill="white"/>
<path d="M15.3037 25.6807V18.312H21.2138V19.1597H16.2377V21.3196H19.2484V22.1674H16.2377V24.8331H21.5205V25.6807H15.3037Z" fill="white"/>
<path d="M9.71921 18.312C10.9017 18.312 11.8541 18.6538 12.5767 19.3398C13.2993 20.0255 13.6616 20.9165 13.6616 22.0168C13.6616 23.1242 13.3062 24.0129 12.5953 24.6803C11.8821 25.348 10.9249 25.6807 9.71921 25.6807H6.49707V18.312H9.71921ZM9.71921 19.1597H7.431V24.8331H9.71921C10.6437 24.8331 11.3733 24.5778 11.903 24.0697C12.4349 23.5595 12.6999 22.8713 12.6999 22.0033C12.6999 21.1488 12.4303 20.4607 11.889 19.9412C11.35 19.4195 10.6253 19.1597 9.71921 19.1597Z" fill="white"/>
<path fill-rule="evenodd" clip-rule="evenodd" d="M32.2531 33.063V33.9517H0.110352V33.063H32.2531ZM32.2531 33.063H31.347V29.3719H32.2531V33.063ZM32.2531 5.2294H31.347L31.3166 1.09794L32.2531 0.649658V5.2294Z" fill="#D69F67"/>
<path fill-rule="evenodd" clip-rule="evenodd" d="M0.110352 33.9517L1.01648 33.063V1.53837H0.110352V33.9517ZM32.2531 0.649658L31.347 1.53837H1.01648H0.110352V0.649658H32.2531Z" fill="#5B5B5B"/>
</svg>
