<svg width="16" height="16" viewBox="0 0 16 16" fill="none" xmlns="http://www.w3.org/2000/svg">
<path d="M8.21743 0C3.83137 0.000666676 1.5 2.81071 1.5 5.87475C1.5 7.29544 2.29401 9.06813 3.56536 9.63014C3.92803 9.79347 3.88003 9.59414 4.19204 8.40079C4.21671 8.30145 4.20404 8.21545 4.12404 8.12278C2.30668 6.02075 3.76937 1.69936 7.95809 1.69936C14.0202 1.69936 12.8875 10.0875 9.01277 10.0875C8.01409 10.0875 7.27008 9.30346 7.50542 8.33345C7.79076 7.1781 8.34943 5.93608 8.34943 5.10341C8.34943 3.00471 5.22272 3.31605 5.22272 6.09675C5.22272 6.9561 5.52672 7.53611 5.52672 7.53611C5.52672 7.53611 4.52071 11.6002 4.33404 12.3595C4.01804 13.6449 4.37671 15.7256 4.40804 15.9049C4.42738 16.0036 4.53804 16.0349 4.60004 15.9536C4.69938 15.8236 5.9154 14.0889 6.25607 12.8348C6.38007 12.3782 6.88874 10.5248 6.88874 10.5248C7.22408 11.1302 8.19076 11.6368 9.22078 11.6368C12.2848 11.6368 14.4995 8.94346 14.4995 5.60141C14.4889 2.39737 11.7468 0 8.21743 0V0Z" fill="white"/>
</svg>
